<svg id="Livello_1" data-name="Livello 1" xmlns="http://www.w3.org/2000/svg" viewBox="0 0 470 98.71"><defs><style>.cls-1{fill-rule:evenodd;fill:white}</style></defs><path class="cls-1" d="M414.06,437.3a7,7,0,0,1,0-.82c-.11-.18-.33,0-.44,0-4.61,3.25-9.33,6.46-15.34,6.13a3.79,3.79,0,0,1-2.29-1.7c-1.13-2.23.22-5.86.18-5.94-4.57,2.84-9.1,5.75-14.08,7.52-.52-.11-1.85.71-1.59-.33a113,113,0,0,0,28.69-21.41c2.22,0,7.17,0,7.06,0-4.5,4.46-11.74,11.75-16.09,16.36-.65.69-1.66,1.55-1.26,2.66,1.55,1.58,4.21.62,5.76-.08a49.06,49.06,0,0,0,14.44-11.52,29,29,0,0,1,16-8.24A5,5,0,0,1,440,422c.08.15.08.33.26.44.74-.07,1.75-1.13,2.29-1.69h6.48c-1.29,1.84-11.65,13.48-15.41,17.76a.91.91,0,0,0-.07,1.18,2.88,2.88,0,0,0,2.19.37c4.15-.46,7.1-3.77,10.25-6.56,4.61-4.91,9.56-10.51,15.31-13.39,1.84-.7,4.53-1,6.19.26,1.41,1.18,1.33,3,1.77,4.53,1.55-.33,2.79-1.92,4-2.76a12.81,12.81,0,0,1,2.76-1.48c2-.77,4.8-1.29,6.71.08a6,6,0,0,1,.89,6.19,5.78,5.78,0,0,1-1.07,1.77c-3.17,3.36-6.38,6.71-9.55,10.11a1.69,1.69,0,0,0-.7,1.58c1.07,1,2.47.08,3.54-.26,3.5-1.43,6.64-4,9.55-6.74a28.43,28.43,0,0,1,20.1-13.46,5,5,0,0,1,4.86,2.06c.08.15.08.33.26.44.74-.07,1.76-1.13,2.29-1.69h6.48c-1.29,1.84-11.64,13.48-15.4,17.76a.9.9,0,0,0-.08,1.18,4.61,4.61,0,0,0,2.8.08c9.55-3.21,17.19-11.95,24.45-19.73a1.55,1.55,0,0,1,1.4-.56c.23.63-.29,1.18-.62,1.7-7.08,8.85-15.86,17.88-26.11,21.5-2,.48-4.57.44-5.9-1.33-.65-.55-.33-1.58-1.07-1.66a14.66,14.66,0,0,1-10.36,2.8,5.16,5.16,0,0,1-3.91-3.79,3,3,0,0,0-.26-1.52c-4.35,3-8.74,6.2-14.49,5.5-.75,0-1.72-1.42-1.88-2.4-.41-2.51,1.77-4.17,3.2-6,3.29-3.32,6.46-6.67,9.56-10.07.4-.5.18-1.14.07-1.62-.33-.74-1.11-.81-1.77-1-2.54,0-4.39,1.7-6.27,3.28-5.64,5.94-11.28,11.36-16.82,17.34-2.23,0-7.37.06-7.44,0,4.72-5,10.46-10.2,15-15.37,1-1.18,2.54-2.56,2.28-4.8-.59-1-1.8-.66-2.72-.62-5.5,2-10.07,7.48-14.17,11.69a33.51,33.51,0,0,1-9.25,7.78,21.33,21.33,0,0,1-4.11,1.77c-2,.48-4.58.44-5.9-1.33-.65-.55-.34-1.58-1.07-1.66a14.68,14.68,0,0,1-10.37,2.8,5.16,5.16,0,0,1-3.9-3.79A7.53,7.53,0,0,1,414.06,437.3Zm9.17-6.9a29.87,29.87,0,0,1,10.51-8.08c1.18-.37,2.91-.51,3.83.56a2.38,2.38,0,0,1,.52,2.1c-.81,2-2.58,3.61-4.17,5.31-4.46,4.28-8.44,11.25-15.3,10.36a1.63,1.63,0,0,1-1.07-1C417.12,436.84,420.9,433.06,423.23,430.4Zm70.34,0a29.87,29.87,0,0,1,10.51-8.08c1.18-.37,2.91-.51,3.83.56a2.35,2.35,0,0,1,.52,2.1c-.81,2-2.58,3.61-4.17,5.31-4.46,4.28-8.44,11.25-15.3,10.36a1.63,1.63,0,0,1-1.07-1C487.46,436.84,491.24,433.06,493.57,430.4ZM418,410.19c1.11-.52,2.37-1.2,3.73-.7a2.71,2.71,0,0,1,1.58,1.51,5,5,0,0,1-2.1,5.13,4.4,4.4,0,0,1-4.54.37,2.36,2.36,0,0,1-1.07-1.7A5.31,5.31,0,0,1,418,410.19ZM352.59,424.9a2.26,2.26,0,0,1,2.1.45c1.33,1.62.92,4.16,0,5.82a6.61,6.61,0,0,1-2.91,2.77c1.4,3.69,5.35,5.31,9.11,5.31,21.64-.3,33.7-23.86,45.76-38.61a243.07,243.07,0,0,1,21.24-26.81c-10.66-6.53-25.78-3.61-35.92,1.95a77,77,0,0,0-26.22,22.13c-2,3-3.79,7-2,10.81,2.25,3.9,6.78,4.53,11.06,4.24,16.41-2.62,31.57-17.26,38.24-32.42.77-2.14,1.44-4.31,2-6.53h.07c0,7.31-3.65,13.35-7.34,19.29-7.41,10.92-18.29,20.76-31.23,22.2-5.68.55-11-1-14.35-5.64-2.21-4.83-.66-10.73,1.77-15,10-15.16,26-23.53,42.67-26.3,8-1.18,16.15-.22,22.75,3.65.08,0,14.08-14,24.08-15.85.15,0,.41-.08.52.11v.07a62.62,62.62,0,0,0-21.31,15.05c-.45.7-1.59,1.21-1.26,2.14,5.5,4.9,8.74,12,6.2,19.28-1.74,5.2-6.64,10.25-12.21,11.07-2.58.25-5.24-.45-6.45-2.92-1.66-4,.7-7.85,3.43-10.8a13.54,13.54,0,0,1,9.22-4.1c.36.11.88.15.95.56a7.39,7.39,0,0,0-3.87,1.21c-4.13,2.33-8.37,6.72-8.15,11.69a3.35,3.35,0,0,0,2.47,2.33c2.18.22,3.68-1,5.24-2.4,5.86-5.22,8.59-12.1,5.75-19.29a11.66,11.66,0,0,0-4.27-5.16c-7,7.58-15.6,24.38-15.75,24.34-3.61,6.2-7.27,12.39-12.28,18a72.4,72.4,0,0,1-31.42,22.2c-5.57,1.65-13.2,2.47-18-1.52-2.8-2.61-4.27-6.45-2.8-10.17A5.49,5.49,0,0,1,352.59,424.9Zm-50.53,7.9c4.13-4.87,9.33-9.19,15.12-10.85a5.57,5.57,0,0,1,3.28.19,2.79,2.79,0,0,1,1.26,2.21c0,.63.07,1.33-.37,1.7a6,6,0,0,0-4.06,2.91,7.22,7.22,0,0,0-.81,3.47A34.34,34.34,0,0,1,305.67,440c-1.77.74-4.35,1-6-.18a2.29,2.29,0,0,1-.81-2.47A17.29,17.29,0,0,1,302.06,432.8Zm-56.2,3.76A96.51,96.51,0,0,1,256.74,425c2.76-2.47,6.38-4.43,10-3.28a2.36,2.36,0,0,1,1.15,1.95c-.15.66,0,1.44-.34,2a7.25,7.25,0,0,0-4.68,4.79,7.66,7.66,0,0,0-.11,1.77c-4,3.62-8,7.12-13,8.3-1.66.19-3.61.07-4.57-1.4A3.42,3.42,0,0,1,245.86,436.56Zm15.56-59.19c6.09-6.38,12.65-12.21,21.61-11.62,1.51.41,3.39,1.11,3.87,2.84.93,4-1.91,6.79-4,9.67-10.59,11.8-23.6,18.54-36.92,24.15a19.57,19.57,0,0,1-3.09.81A179.39,179.39,0,0,1,261.42,377.37Zm-86.18,60.88c6.09-2.39,13.35-.95,19.1,1.15a15.75,15.75,0,0,1-6.63,1.44,35.56,35.56,0,0,1-11.69-.19c-.59-.29-1.33-.44-1.66-1.14S174.84,438.48,175.24,438.25Zm-2.65-.7c6.23-3.87,15-2.39,22.2-1.58,1.8.29,3.65.44,5.38.88,2.14-.59,4-2,5.94-3a95.87,95.87,0,0,0,9.84-7.34c.15.08,4.76-4.9,4.87-5.05,3.14-3.87,6.12-7.85,9-11.83v-.26a62.38,62.38,0,0,1-11.29-.18c-5.12-.68-9.4-2.86-13.64-6.9-5.56-5.31-4.65-14.16-1.88-18.52,5.24-8.07,11.88-12.7,21.84-16.66a65.1,65.1,0,0,1,11.09-3c6.45-.89,13.9-1.77,20.36-.26.14.07.07.22.07.37s-.3.11-.44.26c-18.59-1.29-36,3.46-47.43,18.58-3.06,4.39-5.42,10.85-2.39,16,5.82,8.26,17,9.33,26.22,7,1.77-1.84,3.09-4,4.68-6,9.29-11.87,20.1-25,32.93-33,4.76-2.58,11.17-5.16,16.63-2.21a6.56,6.56,0,0,1,2.55,7.08c-3.47,10.19-14.31,17.3-22.83,22.94a127.29,127.29,0,0,1-26.29,12c-8.93,12.94-22.24,22.68-35,30.28,0,.25.3.25.45.36a146.34,146.34,0,0,0,20.17.45c7-.93,13.64-2.92,19.14-7.53,4.68-6.41,11.32-11.54,19.36-11.5,2.25.18,4.79.92,5.57,3.35.59,1.92-.3,3.91-.26,5.94,0,.26-.26.48-.19.78.3.4.74,0,1.07,0a72.35,72.35,0,0,0,10.36-8.3c.12-2.44.48-5,2.84-6.31.48-.07,1-.44,1.52-.15a1.39,1.39,0,0,1,1,1.15c.11,2.21-1.66,3.65-2.91,5.31,2.17,1.18,6-.15,6.63,3.17.41,4.06-3.06,6.6-5.57,9.48-2.1,2.1-4.57,4.2-6.45,6.45a.85.85,0,0,0,.52,1.25c3.72.83,8.19-1.47,11.69-3.46,4-2.8,7.26-6.76,10.69-10.36,5.22-5.49,12-9,19.77-7.34a5.19,5.19,0,0,1,3.17,3.28c.77,2.32-.7,4.24-.44,6.45.48.41,1,.11,1.4-.07,5.82-5.16,11-11.29,15.85-17.08.45-.14.6.23.71.52-1,2.25-2.7,4.2-4.17,6.27-4.69,5.2-9.18,12.06-15.75,14.46-1.17.56-1.92,0-2.84.25-4.75,4.39-9.77,8.19-16.08,8.93a5.85,5.85,0,0,1-5.93-2.92c-.86-1.41-.7-4.16-.81-4.16a29.52,29.52,0,0,1-14.61,7.08c-2.32.33-4.86-.08-6.08-2.1-1.51-6.57,5.79-10.4,9.81-14.53.62-1,2.36-1.44,1.95-2.73a20.38,20.38,0,0,0-5-.89c-2.06,1.11-3.68,3.36-5.64,4.76a33.09,33.09,0,0,1-9.4,5.75c-2.44-.51-3.4,2.51-5.2,3.47-4.94,3.69-10.88,8.22-17.26,5.2-2.36-1.37-2.29-4.28-2-6.71L242,435c-3.61,1.66-7.08,3.69-10.95,4.69-10,2.8-22.09,3.46-32.31.81a45.37,45.37,0,0,1-22.23,2.28c-1.77-.48-4.24-.73-4.76-2.91A3,3,0,0,1,172.59,437.55Z" transform="translate(-62.64 -355.51)"/><path class="cls-1" d="M98.69,406.61c.56-2.1,1.26-4,1.65-6.09-1.53-1.24-4.7-3.69-4.7-3.69h6c.81-1.86,1.39-4,2.25-5.85.86,1.84,1.47,4,2.28,5.85h6s-3.16,2.45-4.7,3.69c.39,2.11,1.12,4.05,1.66,6.09L103.89,403Z" transform="translate(-62.64 -355.51)"/><path class="cls-1" d="M127.56,433.79c.86-1.89.47-4.36,2.05-5.84a3.8,3.8,0,0,0,1.19,2.7c.89.15,1.37-.67,1.8-1.27a2.61,2.61,0,0,0-.07-2.58l-.67-.75c.53-.21,1.22.1,1.82.17,1,.17,2.18,1.13,3.23.29a1.82,1.82,0,0,0,.74-2,2.17,2.17,0,0,0-1-1,2.49,2.49,0,0,0-1.72.12,3,3,0,0,1,2.82-1.32,3.73,3.73,0,0,1,3.09,2.51c1.66-2.06,1.59-5.55.29-7.81l-.38-.45a6.71,6.71,0,0,1,2.59,1.15,5.58,5.58,0,0,1,3-3.07c-.19.79-.46,1.82.17,2.49.67.91,2,.82,2.92.58a1.8,1.8,0,0,0,1-1.39,1.34,1.34,0,0,0-.69-1.27c-.48-.07-1.11-.14-1.44.29-.29.24-.36.69-.7.81-.52-1.22.08-2.54.7-3.57.19-.21.55-.45.41-.74a18,18,0,0,1-2.49-3.86,8,8,0,0,0,3.44,1.15c.24-1.17.75-2.58,2-3l.76.07c-.24.67-.79,1.34-.4,2.11a1.15,1.15,0,0,0,1,.86,1.77,1.77,0,0,0,1.53-.91c1.25-2.63-.77-5.08-2.47-7.06a8.64,8.64,0,0,0-5.74-2.38,4.56,4.56,0,0,1,2.29-1.89c.56-.21,1.18.51,1.44-.17.31-1.29.36-3.06,2-3.4h.17a4,4,0,0,0,.48,3.17c1-.1,2.3-.36,3.21.28a3,3,0,0,1,1.39,2.09c-.58-.1-1-.79-1.63-.46-.48.22-.43.82-.33,1.25a1.86,1.86,0,0,0,1.48,1.15,1.71,1.71,0,0,0,1.63-1c1.08-2.73-.46-5.22-2.54-7.09-1.41-1.77-5.56-3.86-5.63-4a6.23,6.23,0,0,1,4.15-.79c.23-.12.45-.43.28-.69-.45-1.05-1.82-1.56-2.13-2.64a20.86,20.86,0,0,1-1.8-7.76c.2,0,.27.29.48.29.22-.21,0-.62.17-.86.26-.62.53-1.49,1.32-1.63a4.66,4.66,0,0,0-.34,2.49,3.32,3.32,0,0,0,1.61,2.4,3.09,3.09,0,0,0,1.2-2.93,5.51,5.51,0,0,1,1.55,3.79c.58-.05,1.1-.53,1.68-.74a3.68,3.68,0,0,1,2.39-.22,4.67,4.67,0,0,0-1.53,4.82,3,3,0,0,0,.79,1.5c.31-.47.15-1.15.24-1.72-.09-.67.55-1,1-1.34.22.33,0,.84.17,1.22a7.91,7.91,0,0,1,1,4.89,1.35,1.35,0,0,0,.22.28c.72-.33.86-1.22,1.1-1.89l.29-1.27c2.37,2.85.69,7.14-.12,10.23a2.84,2.84,0,0,0,.17,1.68,1.47,1.47,0,0,0,1.6.5c1.41-.72.77-2.64,1.92-3.62a7.3,7.3,0,0,1,.09,5.42,3.08,3.08,0,0,1,3,1.82l.5,1.39c-.38.14-.72-.24-1.08-.34a7.17,7.17,0,0,0-7.3,1.37,3.4,3.4,0,0,0-1,3.28,2.2,2.2,0,0,0,.93,1.39,1.74,1.74,0,0,0,1.82-.2c.62-.57.65-1.38,1.22-2,.36.67,0,1.46.05,2.21a6.87,6.87,0,0,1-4.14,5.22c-1,.74-2,1.77-1.73,3a.76.76,0,0,0,1,.41c.82-.29,1-1.18,1.27-1.78.63,1.13,1.13,2.83.34,4.08a9.86,9.86,0,0,1,.81,2.82,5.62,5.62,0,0,1-.45,3H163a5.93,5.93,0,0,0-4.31-4.36,6.7,6.7,0,0,0-5,.87,1.73,1.73,0,0,0-.57,1.77c.45,1.32,2,1.08,3.16,1.1.19-.1.43-.05.64-.12a3.73,3.73,0,0,1-1.22,2.08c-.07.34.31.65.46,1a5.83,5.83,0,0,1,.36,3c-1.85-1.85-4.07-3.14-6.78-2.81a1.7,1.7,0,0,0-1.15,1.37c-.19,1.75,2.32,1.6,2,3.4a20.2,20.2,0,0,0-6-1.27c-1.78-.09-4.39-.12-5.3,1.77a2.83,2.83,0,0,0,1.32,2.14c.33.26,1.1.28,1,.74-.94,1.15-2.78,1-4,.57-.15.05-.39-.09-.46.12-.1.77.34,1.32.53,2a3.29,3.29,0,0,1-3.24-1.39,7.34,7.34,0,0,1-4.93,2.3c-.12-.48.36-1,.12-1.49-1.17.39-2.06,1.44-3.07,2.23a17,17,0,0,0-3.9,5.29,2.15,2.15,0,0,1,1.89,1,1.5,1.5,0,0,1,.24,1c-.5,0-1.1-.67-1.6-.36a5.52,5.52,0,0,0-2.09,2.54c.46.24,1,.19,1.39.62-.38.55-1,.93-1.32,1.56a12.25,12.25,0,0,0-.74,1.79h-6.15a2.57,2.57,0,0,1-.24-.86,4.61,4.61,0,0,0-1.78-2.3c0-.86,1.85-.26,1.15-1.34-.64-.79-1.39-2.13-2.53-2-.32.14-.56.45-.92.48-.21-.46.1-.87.29-1.22a3,3,0,0,1,1.77-.91,18.27,18.27,0,0,0-6.61-7.31c-.14,0-.24-.1-.4-.05-.15.51.31,1.06.07,1.53a7.33,7.33,0,0,1-4.89-2.29,3.5,3.5,0,0,1-3.16,1.5c0-.74.7-1.53.29-2.29A4.21,4.21,0,0,1,93.1,437a.75.75,0,0,1-.28-.48c.5-.34,1.1-.43,1.55-.91a2.16,2.16,0,0,0,.75-2c-1.42-2.13-4.48-1.58-6.78-1.43a26.27,26.27,0,0,0-4.48,1.15,1.74,1.74,0,0,1,.38-1.37c.51-.65,1.61-.77,1.56-1.72a1.57,1.57,0,0,0-.91-1.61A7.4,7.4,0,0,0,79.36,430l-1.49,1.31a4.48,4.48,0,0,1,.82-3.78,4.9,4.9,0,0,1-1.35-2.18c1.25.14,3.09.36,3.81-.86a1.59,1.59,0,0,0-.36-1.73,6.26,6.26,0,0,0-6.37-.64,5.55,5.55,0,0,0-3.11,4c-.27,0-.31-.36-.46-.57a6.85,6.85,0,0,1,.58-5.18,4.39,4.39,0,0,1,.29-4.24s.59,1.54,1.38,1.77c.36.2.7,0,.91-.33.27-1.29-.71-2.3-1.72-3A6.9,6.9,0,0,1,68.05,409a10.94,10.94,0,0,1-.12-1.84s1,2.35,2.47,2.3a1.77,1.77,0,0,0,1.39-.79,3.36,3.36,0,0,0-.07-3.28c-1.71-2.35-4.87-2.92-7.6-2.18-.55,0-.91.6-1.48.62.31-1.36,1-3.07,2.58-3.38.29,0,.65.1.87-.12a7.36,7.36,0,0,1,.12-5.46c1.31,1,.52,5,3.28,3.38.86-1.15.09-2.64-.24-3.78-.89-2.54-1.37-6.16.41-8.46.33,1.1.4,2.37,1.27,3.23.16.08.28-.12.33-.24a8.55,8.55,0,0,1,1-5.12,8.19,8.19,0,0,1,.29-1c1.22.62.74,2,1.1,3a4.29,4.29,0,0,0,.62-4.19,5.89,5.89,0,0,0-1.48-2.13c1.53-.41,2.8.43,4.07,1,.31-.53.09-1.25.41-1.77a5.73,5.73,0,0,1,1.27-2,3,3,0,0,0,1.36,3A4.39,4.39,0,0,0,81.2,375a2.21,2.21,0,0,1,1.27,2.2L83,377a17.92,17.92,0,0,1-2.09,8.53c-.55.84-1.79,1.34-1.72,2.39,0,0,3.23.19,4.43,1,0,.39-4.77,2.85-6.49,5a6,6,0,0,0-2,5.22c.24.74.6,1.75,1.51,1.92a1.6,1.6,0,0,0,1.73-.82,1.34,1.34,0,0,0,0-1.39c-.29-.38-.72-.23-1.11-.09a1.28,1.28,0,0,1-.79.38A3,3,0,0,1,78,397a4.47,4.47,0,0,1,3.28-.12,3.1,3.1,0,0,0,.41-2.63l-.29-.58a1.13,1.13,0,0,1,1.08.12c1.15.86,1.24,2.25,1.55,3.5a2.42,2.42,0,0,1,2.59.57,14.59,14.59,0,0,1,1.15,1.39A7.73,7.73,0,0,0,81.44,402a11,11,0,0,0-2.37,4.48,2.76,2.76,0,0,0,1.34,2.82,1.08,1.08,0,0,0,1,0,1.85,1.85,0,0,0,.57-2c0-.36-.69-.69-.28-1,1-.19,1.63.52,2.13,1.22.65.48,0,2.3,1.36,1.72a10.67,10.67,0,0,0,2.66-1.1s-1.6,2.8-2.49,4a4.64,4.64,0,0,1,1.34,4c-.09.07-.09.17-.19.22s-.26-.34-.38-.51c-.34-.35-.67-.71-1.15-.69a2,2,0,0,0-.86.29,1.33,1.33,0,0,0-.36,1.39A1.8,1.8,0,0,0,85.3,418a2.77,2.77,0,0,0,2-.29,2,2,0,0,0,.74-2.2c0-.24-.24-.41-.24-.67,1.44.26,2.52,1.74,3.12,3,.62-.1,2.29-1.25,2.63-1.15a3.61,3.61,0,0,1-.46.69c-1.07,2.28-1.29,5.6.41,7.64a3.81,3.81,0,0,1,3-2.51,3.22,3.22,0,0,1,2.88,1.07v.24a2.18,2.18,0,0,0-2.06.12,1.69,1.69,0,0,0-.58,1.78A2.19,2.19,0,0,0,98.4,427c1.48-.1,2.73-1,4.24-.82a2.63,2.63,0,0,0-1,2.78c.28.72.86,1.75,1.79,1.82,1.06-.38,1.27-1.63,1.37-2.68.12-.19.17.07.29,0,1.24,1.71,1.1,4,1.89,5.87a45.72,45.72,0,0,0,8.29,8c.36-.45.07-1-.12-1.51a2.48,2.48,0,0,0-2.14-1.15c.15-.43.68-.6,1.11-.67h1c.12-.45-.41-.81-.75-1.1s-1-.22-1.43-.45a2.31,2.31,0,0,1,2.46-.65.86.86,0,0,0,.65.19,8.38,8.38,0,0,0-1-1.8,12.55,12.55,0,0,0-2.23-2.51,1,1,0,0,0-.7.62c-.16.38.32.65.05.91a.67.67,0,0,1-.67-.5l-.24-.86c-2.54-.24-4-2.78-5.51-4.6a3.82,3.82,0,0,1-.81-3.33,2.9,2.9,0,0,1,1.84-1.63c2.59-.43,4.27,2.51,5.68,4.21.6,1,1.32,1.94,1.1,3.26a1.63,1.63,0,0,1,1.27.77c0,.14.12.19,0,.33-.36,0-.86-.24-1.2.17a22.77,22.77,0,0,0,2.76,2.95c.07-1.66.33-3.24.24-5-.36-.17-.68.26-.87.53-.12.07,0,.28-.19.28-.38,0-.36-.4-.5-.64a3.33,3.33,0,0,1,.33-1.37,7.19,7.19,0,0,1-.86-7.18,3,3,0,0,1,5.37,0,7.19,7.19,0,0,1-.86,7.18c.11.46.4.84.33,1.37-.14.24-.12.67-.5.64-.22,0-.07-.21-.19-.28-.2-.27-.51-.7-.87-.53-.09,1.72.17,3.3.24,5a22.77,22.77,0,0,0,2.76-2.95c-.34-.41-.84-.19-1.2-.17-.07-.14.1-.19,0-.33a1.62,1.62,0,0,1,1.27-.77c-.22-1.32.5-2.27,1.1-3.26,1.41-1.7,3.09-4.64,5.68-4.21a2.9,2.9,0,0,1,1.84,1.63,3.82,3.82,0,0,1-.81,3.33c-1.51,1.82-3,4.36-5.51,4.6l-.24.86a.67.67,0,0,1-.67.5c-.27-.26.21-.53,0-.91a1,1,0,0,0-.69-.62,12.25,12.25,0,0,0-2.23,2.51,8.38,8.38,0,0,0-1,1.8.86.86,0,0,0,.65-.19,2.31,2.31,0,0,1,2.46.65c-.43.23-1,.19-1.44.45s-.86.65-.74,1.1h1c.43.07,1,.24,1.1.67a2.47,2.47,0,0,0-2.13,1.15c-.19.46-.48,1.06-.12,1.51A47.5,47.5,0,0,0,127.56,433.79Z" transform="translate(-62.64 -355.51)"/><path class="cls-1" d="M125.51,377.26c.56-2.09,1.27-4,1.65-6.08-1.53-1.25-4.69-3.69-4.69-3.69h6c.82-1.87,1.39-4,2.26-5.85.86,1.84,1.47,4,2.28,5.85h6s-3.16,2.44-4.69,3.69c.38,2.11,1.12,4.05,1.65,6.08l-5.17-3.61Z" transform="translate(-62.64 -355.51)"/><path class="cls-1" d="M96.89,364.42c.5-.07.24.58.48.79a1.23,1.23,0,0,0,.74.53c.84.43,1.29-1.1,1.94-.12a.77.77,0,0,0,.93-.5c.1-1,1.49.12,1.73-1.05.31-.41-.22-1.27.45-1.44a.72.72,0,0,0,.12-.91c-.07,0-.07-.12-.07-.17.34-.17.58.24.65.5.07.84-.86,1.15-.53,2a1.62,1.62,0,0,1-1.2,1c-1-.34-.57,1.08-1.5,1-.56.17-.87-.82-1.37-.29s-1.08.41-1.6.34a1.48,1.48,0,0,1-.94-1.08A.71.71,0,0,1,96.89,364.42Z" transform="translate(-62.64 -355.51)"/><path class="cls-1" d="M104.72,368.78c.1-.91,1.25-.52,1.77-1,.6-.69-.21-1.74.46-2.42a4,4,0,0,0-.1-1c.27-.12.6-.05.63.29,0,.69-.48,1.27-.29,2,0,.29.09.79-.24,1-.48,1-2,.29-2.06,1.61-.17.31-.58.17-.82.12C104.46,369.43,104.58,369,104.72,368.78Z" transform="translate(-62.64 -355.51)"/><path class="cls-1" d="M106.33,363.2c.14,0,.24.1.33.12-.26.22-.09.72-.38.82A.8.8,0,0,1,106.33,363.2Z" transform="translate(-62.64 -355.51)"/><path class="cls-1" d="M107.76,362.63c.1-.38-.31-.7,0-1,.28-.05.35.29.45.45a1.28,1.28,0,0,1-.24.94c-.33.05-.67.62-1,.28C107.21,363,107.6,363,107.76,362.63Z" transform="translate(-62.64 -355.51)"/><path class="cls-1" d="M109.08,367.59c.17-.1.29-.48.53-.29s.24.45.5.5c.6.1,1-.72,1.5-.12.2.05.44,0,.51.19-1-.45-1.75.91-2.58-.07-.44.17-.89.6-1.37.29C108.29,367.75,108.82,367.85,109.08,367.59Z" transform="translate(-62.64 -355.51)"/><path class="cls-1" d="M129.49,390.22a.62.62,0,0,1,.52.19c0,.1-.16.24-.28.29s-.51.1-.58-.12A.41.41,0,0,1,129.49,390.22Z" transform="translate(-62.64 -355.51)"/><path class="cls-1" d="M117.27,418.22a5.54,5.54,0,0,0-4.07-3H97.62a7.59,7.59,0,0,1-8.1-8.43V359.24a4.46,4.46,0,0,0-2.7-3.51,7,7,0,0,0-.86-.22h62.58a6.53,6.53,0,0,0-.86.22,4.51,4.51,0,0,0-2.73,3.51l0,47.56a7.69,7.69,0,0,1-3.23,7.11,7.84,7.84,0,0,1-4.88,1.32H121.27A5.44,5.44,0,0,0,117.27,418.22ZM139,396.33c-.24.07,0,.29-.19.41.77,1.24.79,2.78,1.73,3.95.09,0,.19.05.24-.05a22.15,22.15,0,0,0-1.2-3.86C139.55,396.57,139.33,396.23,139,396.33Zm-.57-4-.29.24c0,.94.67,1.73.86,2.64.12.12.24.31.46.24a.71.71,0,0,0,.41-.75C139.48,393.91,139.5,392.66,138.47,392.35Zm-.65,3.91c-.24.07-.24.36-.21.57a35.49,35.49,0,0,0,1.53,3.57.22.22,0,0,0,.36,0,7.12,7.12,0,0,0-.7-2.58C138.57,397.24,138.42,396.5,137.82,396.26Zm-.86-3.33a.52.52,0,0,0-.33.45,20.13,20.13,0,0,0,.86,2.25c.14,0,.33.05.45,0,.36-.17.22-.72.17-1.06C137.7,394,137.8,393,137,392.93Zm-.33,3.69c-.27.76.43,1.41.5,2.18.21.24.26.79.64.74a15.93,15.93,0,0,0-.45-1.84A2.58,2.58,0,0,0,136.63,396.62Zm-.94.16-.09.12a7.42,7.42,0,0,0,.45,1.66c.1.09.22.28.34.12A3.46,3.46,0,0,0,135.69,396.78Zm.12,6.66c-.6.36.1,1.08.24,1.56s.48,1.1,1,.81l0-.45C136.63,404.74,136.46,404,135.81,403.44Zm-.45-10a.59.59,0,0,0-.46.69c.48.57,0,2.08,1.32,1.77.36,0,.41-.45.33-.69C136.17,394.63,136.36,393.43,135.36,393.46Zm-.75,3.44a6.89,6.89,0,0,0,.51,1.73h.12c.24-.38,0-.84-.05-1.22S135,396.74,134.61,396.9Zm-.07,6.45a1.92,1.92,0,0,0,.48,1.77c.46-.43-.14-1-.12-1.48C134.85,403.52,134.71,403.32,134.54,403.35Zm.41-16.63-.62.46c-.77,1.51-.05,3.26,0,4.84a2,2,0,0,0-.12,1.2c.65-.75,1.85-.12,2.42-1,1,.27,1.37-.93,2.3-.5,1.08.81,1.37,2.13,1.8,3.33.36.74-.7,1-.41,1.77a29,29,0,0,0,2,4.6,17.27,17.27,0,0,0-.86-3.38c-.21-.64-.84-1.27-.45-2a6,6,0,0,0-.58-3.69c-.86-1.72-1.53-3.52-2.54-5.17A2.8,2.8,0,0,0,135,386.72Zm-1.37,10c-.24.48.15.88.1,1.36.19.19.09.82.53.58.21-.31,0-.77,0-1.15C134,397.24,134.06,396.62,133.58,396.74Zm0-2.83a.35.35,0,0,0-.24.41c.32.67-.16,2,1,2,.88-.41,0-1.32,0-2C134.25,394.05,134,393.67,133.58,393.91Zm-.12,9.49a1.14,1.14,0,0,0-.12.69c.12.17.17.58.53.46v-.46C133.8,403.83,133.77,403.4,133.46,403.4Zm-.81-3.12c-.46.67-.12,1.58-.05,2.3.22.6.82.07,1.27.24a1.06,1.06,0,0,1,1.15-.05,1.73,1.73,0,0,0-1-1.39c-.31-.21-.65.2-.94-.12a.42.42,0,0,1,.2-.4c.79-.51,1.43.36,2.06.81l3.11,4.65a.9.9,0,0,1-.29,1.05,1.73,1.73,0,0,1,1.44.86,1.78,1.78,0,0,1,.86-1.05c-.41-.31-.93-.29-1.27-.67L136,401c-.31-.41-.62-1-1.15-1.15A2.66,2.66,0,0,0,132.65,400.28Zm-3.91-13.22c-.35.29,0,.79.12,1.1a15.32,15.32,0,0,1,2.71,0,1.63,1.63,0,0,0,.46-1c-.2-.53-.63.14-1,.12-.55-.1-.33-.72-.62-1-.81-.17-.33.79-.86,1C129.27,387.44,129,387.13,128.74,387.06Zm.29,2.59a2.14,2.14,0,0,1-1.39,1.05c.55,0,1.1-.05,1.44.46.19.31-.07.64,0,.91.14,0,.19-.08.29-.12.33-.22.55.19.81.28.17-.07.12-.24.29-.33s.33.05.53.05v-1.37c.12-.55.83-.33.95-.86a2.79,2.79,0,0,1-1.43-.29C130.13,389.77,129.49,389.5,129,389.65Zm-2,7.18c-.53.31-.33,1.1-.45,1.68l.28.05C127,398,127.31,397.41,127,396.83Zm.62,9.32c-.28.69-.91,1.27-1.07,2,.43,0,.69-.29,1-.45.59-.36.67-1.1,1.26-1.32.24.05.24.31.22.5a24.14,24.14,0,0,1-1.94,3.36c1.63-.34,2.13-2.28,2.75-3.57.15,0,.34-.07.41.12a19.37,19.37,0,0,0,.17,3c.07.26.29.67.62.45a6.92,6.92,0,0,0,.12-3.33l.17-.16c.81.16.74,1.12,1.22,1.65s1.15,1.34,1.85,1.32c-.72-1.08-1.82-2-2.26-3.21.08-.17.29-.39.46-.24.72.57,1.1,1.75,2.13,1.67v-.24l-2.18-3.54c-.53-1-1.32-2-.93-3.35a9.5,9.5,0,0,0,1.05-3.09c.07-1.68.24-3.57-.81-4.77-.12,0-.27-.05-.34.1-.31.07-.36-.29-.53-.46a.49.49,0,0,0-.57.29c-.26.31-.48-.12-.7-.29-.86-.17-1,.84-1.36,1.32-.67,2-.62,4.67.79,6.27C130.42,402.41,128.48,404.31,127.64,406.15Zm-.5-2.47c-.53.1-.48.75-.65,1.15.15.15.29,0,.41-.05A1.28,1.28,0,0,0,127.14,403.68Zm.12-9.89c-.74-.43-.74.46-.86.86-.39.24,0,.89-.19,1.32.12.24.43.26.69.24.34-.29.31-.72.46-1.1S127.55,394.13,127.26,393.79Zm-1.51,2.95c-.65.38-.43,1.34-.5,2.06l.29,0c.35-.28.26-.81.45-1.19C125.92,397.34,126.3,396.71,125.75,396.74Zm0,7a2.51,2.51,0,0,0-.91,1.73h.22a1.18,1.18,0,0,0,.48-.51C125.63,404.57,126.09,404,125.75,403.73Zm-1-10.27-.24.79a7.08,7.08,0,0,0,0,1.72.69.69,0,0,0,.82-.05,10.05,10.05,0,0,0,.38-2.3A.83.83,0,0,0,124.72,393.46Zm-.62,3.28-.24.21c-.07,1-.82,1.87-.41,2.83a.42.42,0,0,0,.29-.07,7.61,7.61,0,0,0,.81-2.76A.34.34,0,0,0,124.1,396.74Zm.45,7.06a4.73,4.73,0,0,0-1.6,2.3h.21A3.36,3.36,0,0,0,124.55,403.8Zm-1.15-11.09a12.15,12.15,0,0,0-.64,3.16c0,.27.43.27.64.17a9.06,9.06,0,0,0,.63-3C124,392.71,123.67,392.66,123.4,392.71Zm-1.15,4.36-.64,2.47c0,.26-.12.65.07.86.17.05.26,0,.41-.12a17.65,17.65,0,0,0,.86-3.38A.54.54,0,0,0,122.25,397.07Zm-.64-4.31-.63,1.77c0,.46-.26.94,0,1.34.2.22.51.05.7-.07l.74-2.46c.07-.27.15-.65,0-.87S121.85,392.59,121.61,392.76Zm-.67,4.26a16.29,16.29,0,0,0-1,4,.27.27,0,0,0,.29.09,8.21,8.21,0,0,0,1-3.25c0-.34.34-.7,0-1C121.2,396.93,121,396.83,120.94,397Zm-.58,10.73c-.31.15-.76,0-1,.2.48,0,.67.57.81.91a1.75,1.75,0,0,1,1.89-.58c-.24-.41-1-.17-.86-.86l3.24-4.72c.86-1,1.86-2.06,3.21-1.84a1.08,1.08,0,0,1,.4.64c-.07,0-.09.15-.17.12-.35-.48-.93-.12-1.34,0-.62.39-1.24.87-1.24,1.61.19.12.45,0,.62-.12.36-.19.74.09,1,.05a.68.68,0,0,1,.93.36,3.56,3.56,0,0,1-.07,1c.53-1.23,1.42-2.5.82-4a1.64,1.64,0,0,0-1-.79,2.19,2.19,0,0,0-2.18.69C123.72,402.89,122.13,405.36,120.36,407.75Zm-.93-10.63c-.27,1.6-.86,3.09-1,4.72.14.05-.05.33.17.24.69-1.1.76-2.45,1.26-3.62-.11-.6.6-1.44-.23-1.72a1.26,1.26,0,0,1,.07-.94c.69-1.51.69-4.05,3-4.14.46.43,1.22.14,1.73.48.26.6,1,.5,1.43.62-.48-1.39.6-2.42.39-3.86A2.11,2.11,0,0,0,125,387a2.6,2.6,0,0,0-2.71.46c-.81,2-1.79,4-2.7,6C119.07,394.46,118.45,396.09,119.43,397.12Zm-18.9-25c1.92,1.49.81,4.22,1.36,6.28-.14,2,.51,4.55-1.19,6,.14.23.48,0,.69.16.7.07,1.15-.57,1.77-.5a2.36,2.36,0,0,0,2.3.34c-1.19-1.66-1-3.89-1.27-5.92.12-1.92-.62-4.34.87-5.75a2.27,2.27,0,0,0-.22-1.68c-.89.2-1.32,1-1.92,1.61-.26.21-.43-.12-.62-.29a9.45,9.45,0,0,1-2-4c0-.15.2-.17.34-.15a20.52,20.52,0,0,0,1.91,3.69l.29.05c.57-.72,1.39-1.82,2.47-1.56,1.19.55,0,2.3,1.27,2.78a1.94,1.94,0,0,0,1.89-.53l.74.86a3,3,0,0,0,1.61,0,1.69,1.69,0,0,0,1-1.67c.2-.24.41.14.7,0a1,1,0,0,0,.65-1c-1-.94.88-.74.74-1.68a1.46,1.46,0,0,0-.17-1.2c-.29-.12-.5-.4-.86-.28-.29-.22,0-.48-.07-.77-.6-.6.31-1.17,0-1.94,0-.43-.51-.46-.75-.7a.4.4,0,0,0-.16-.57c-.77-.1,0-.69-.24-1s-.77-.17-1.15-.24c0-.72-.12-1.46-.86-1.77-.51-.24-.87.17-1.27.33-.2-.09-.15-.31-.22-.45-.14-.58-.77-.74-1.22-.91a2.08,2.08,0,0,0-2.18.74c-.43-.45-.43-1.34-1.2-1.56-1.17.34-2.68-.71-3.52.46,0,1.12-.86.21-1.48.41a.86.86,0,0,0-.75.45c.05.91-.91.91-1.43,1.27a1.42,1.42,0,0,0-.29,1.32c-.14.21-.43.07-.65.12-.72.45-.53,1.41-.38,2.06-.29.28-.7.19-1.06.28a1.17,1.17,0,0,0-.62,1.27,1.77,1.77,0,0,0-.62,2.26c.67.14.5.88.45,1.36a1.6,1.6,0,0,0,1,1.51c1.05-.21.36,1,1,1.37.39.31.89.16,1.27.19.08.19,0,.43.12.62.2.38.77.29,1.15.24l.53.67a1.13,1.13,0,0,0,1,.29c.57,0,.6-1.13,1.22-.46.34,0,.38-.38.34-.69a16.44,16.44,0,0,1-1.9-3.55l-1.43,0c-.34,0-.79-.57-1,.05a1.31,1.31,0,0,1-1,.07,1.21,1.21,0,0,1-.62-1.15c.1-.07.12-.24.29-.17s.09.19.17.29a.82.82,0,0,0,.79.46c.67-.84,1.17.59,2,.12.53-.24.38-.87.74-1.23.18,0,.34,0,.44.14A14.8,14.8,0,0,0,100.53,372.11Zm-4.4,42h15.78a5.87,5.87,0,0,1,5.36,2.22v-30.9H90.69v22.15l.16,1.64A6.84,6.84,0,0,0,96.13,414.15Zm47.55-53.23a6.11,6.11,0,0,1,1.25-4.38H117.27v28.51h26.41Z" transform="translate(-62.64 -355.51)"/></svg>